<?xml version="1.0" encoding="UTF-8" standalone="no"?>
<!DOCTYPE svg PUBLIC "-//W3C//DTD SVG 1.1//EN" "http://www.w3.org/Graphics/SVG/1.1/DTD/svg11.dtd">
<svg width="100%" height="100%" viewBox="0 0 611 615" version="1.1" xmlns="http://www.w3.org/2000/svg" xmlns:xlink="http://www.w3.org/1999/xlink" xml:space="preserve" xmlns:serif="http://www.serif.com/" style="fill-rule:evenodd;clip-rule:evenodd;stroke-linejoin:round;stroke-miterlimit:2;">
    <rect id="Artboard1" x="0" y="0" width="610.482" height="614.49" style="fill:none;"/>
    <g id="Layer4">
        <g id="Layer5">
            <path d="M268.588,527.268C268.064,529.871 266.752,541.088 267.381,544.418C267.656,545.873 268.413,547.055 268.738,547.598C269.116,548.227 273.554,554.095 277.326,556.123C281.607,558.425 291.929,560.51 295.731,561.196C298.628,561.718 311.216,562.025 315.755,561.344C316.63,561.213 327.866,559.375 322.261,551.662C317.6,545.249 316.121,542.96 313.22,539.038C310.724,535.665 305.537,526.788 305.537,526.788C305.537,526.788 305.988,521.861 304.787,515.988C302.851,506.514 288.277,507.341 281.206,511.645C270.099,518.406 270.052,519.994 268.588,527.268Z" style="fill:#0a3c84;"/>
            <path d="M345.173,508.523C344.914,512.879 344.97,516.717 344.877,522.095C344.766,528.59 344.861,528.898 344.718,535.466C349.889,536.767 353.221,537.711 357.839,538.359C360.846,538.782 367.667,540.207 373.423,541.023C379.091,541.827 378.998,541.993 387.927,542.654C390.995,542.881 398.477,543.592 403.983,543.535C412.033,543.452 423.789,545.398 430.028,538.805C431.53,537.217 431.571,535.995 418.987,529.864C415.466,528.148 414.939,527.907 411.13,525.815C400.883,520.187 389.845,511.63 389.395,510.836C385.999,504.843 381.072,495.554 368.347,497.228C360.406,498.273 358.436,497.303 357.558,498.143C347.233,508.019 346.792,505.283 345.173,508.523Z" style="fill:#0a3c86;fill-opacity:0.99;"/>
            <path d="M276.55,260.013C275.879,264.498 272.912,286.522 272.139,300.401C270.135,336.372 272.279,404.802 270.869,417.871C268.464,440.153 266.903,483.851 266.601,526.606C272.749,526.726 281.363,527.042 287.602,527.167C299.975,527.416 309.05,526.999 311.096,526.864C311.765,510.359 312.012,510.433 321.705,423.199C329.514,352.912 334.076,332.121 335.551,324.481C337.989,335.178 356.747,398.146 352.623,415.537C351.054,422.157 344.849,478.687 344.735,523.277C361.738,516.481 372.656,513.664 390.291,510.723C391.407,478.222 401.307,429.014 401.211,400.577C401.071,358.964 390.4,258.441 390.4,258.441C390.4,258.441 278.484,255.883 276.55,260.013Z" style="fill:#1d54a4;"/>
            <path d="M275.829,259.675L276.008,259.402L276.317,259.135C276.613,258.937 277.128,258.735 277.856,258.565C279.888,258.088 283.84,257.727 289.094,257.469C318.752,256.008 390.419,257.646 390.419,257.646C390.819,257.655 391.15,257.959 391.192,258.357C391.192,258.357 401.867,358.938 402.007,400.575C402.103,429.019 392.203,478.241 391.086,510.751C391.073,511.129 390.795,511.446 390.422,511.508C372.85,514.439 361.972,517.245 345.03,524.016C344.785,524.115 344.507,524.084 344.288,523.936C344.069,523.787 343.938,523.54 343.939,523.275C344.053,478.609 350.276,421.984 351.849,415.353C353.07,410.201 352.231,400.999 350.43,390.354C346.661,368.069 338.609,339.539 335.643,328.139C333.681,338.167 329.335,361.738 322.496,423.287C312.808,510.475 312.56,510.4 311.892,526.896C311.875,527.303 311.555,527.632 311.149,527.658C309.097,527.793 299.995,528.212 287.586,527.963C281.348,527.838 272.734,527.521 266.585,527.402C266.15,527.394 265.802,527.036 265.805,526.601C266.108,483.814 267.67,440.084 270.077,417.785C271.487,404.721 269.341,336.315 271.344,300.357C272.119,286.453 275.09,264.389 275.762,259.895C275.774,259.819 275.796,259.745 275.829,259.675ZM277.294,260.422C276.549,265.49 273.69,286.871 272.934,300.445C270.929,336.429 273.071,404.883 271.66,417.956C269.271,440.085 267.718,483.354 267.402,525.826C273.483,525.956 281.641,526.252 287.618,526.372C298.851,526.597 307.357,526.273 310.33,526.112C310.979,510.301 311.359,509.105 320.914,423.111C328.728,352.78 333.293,331.975 334.769,324.33C334.841,323.961 335.161,323.692 335.538,323.685C335.914,323.679 336.243,323.937 336.327,324.304C338.035,331.797 347.743,364.92 352,390.089C353.846,401.002 354.65,410.439 353.398,415.721C351.845,422.271 345.753,477.776 345.535,522.102C361.776,515.676 372.573,512.895 389.519,510.045C390.742,477.55 400.51,428.82 400.415,400.58C400.282,361.016 390.623,268.17 389.682,259.222C382.221,259.058 317.078,257.685 289.172,259.059C284.052,259.311 280.2,259.65 278.219,260.115C277.848,260.202 277.47,260.349 277.294,260.422Z" style="fill:#1c52a1;"/>
        </g>
        <g id="Layer7">
            <path d="M389.932,248.504C391.596,252.134 393.022,255.761 397.814,265.916C398.153,266.635 404.666,278.087 404.566,285.081C404.47,291.83 400.704,307.827 403.364,310.043C407.275,313.302 406.624,306.663 410.003,302.942C410.617,302.265 415.196,296.727 415.309,300.557C415.621,311.171 404.639,317.132 408.609,321.102C409.08,321.574 414.812,320.771 416.614,319.6C419.486,317.734 419.813,317.441 422.147,315.008C425.044,311.987 433.127,304.76 430.035,293.631C424.959,275.361 424.628,279.344 420.657,260.81C420.435,259.773 419.996,257.069 416.232,245.399C414.59,240.308 412.482,242.174 405.338,241.645C404.959,241.617 396.28,242.731 391.515,246.816C391.374,246.936 391.397,246.941 389.932,248.504Z" style="fill:#60a2e7;fill-opacity:0.99;"/>
            <path d="M282.888,164.991C284.238,162.982 268.133,193.478 261.099,201.835C265.677,206.073 270.261,211.255 274.868,216.268C280.718,222.634 284.709,224.924 290.175,236.17C282.217,234.843 248.932,226.56 242.205,225.05C231.983,218.891 218.983,214.622 218.274,207.753C217.774,202.914 218.555,195.291 222.077,183.605C225.856,171.07 236.693,141.158 255.105,124.364C262.977,117.184 277.706,107.407 312.364,102.876C323.855,101.374 330.869,101.756 339.031,102.518C357.372,104.23 378.189,113.873 388.86,125.035C407.555,144.587 416.792,221.004 416.99,224.911C407.874,226.659 405.24,224.869 388.336,231.032C390.104,247.682 390.031,248.451 395.038,264.395C395.889,267.104 371.691,283.416 332.453,281.217C306.29,279.75 271.419,273.795 271.419,273.795C271.419,273.795 272.877,262.601 275.418,253.286C279.852,237.032 283.594,167.106 282.888,164.991Z" style="fill:#b0d8f5;"/>
            <path d="M270.823,187.076C271.458,189.4 271.927,193.972 275.938,212.333C276.259,213.802 277.298,220.002 277.821,227.728C286.786,230.471 292.126,237.781 291.805,228.377C291.501,219.486 290.06,203.358 288.491,190.88C287.743,184.932 285.827,176.145 282.701,163.348C278.691,172.45 280.818,167.624 276.875,175.974C273.664,182.773 271.352,186.002 270.823,187.076Z" style="fill:#98c9ef;"/>
            <path d="M389.778,153.13L388.345,235.074L414.732,227.487C414.732,227.487 410.425,204.483 406.226,191.641C400.43,173.91 389.778,153.13 389.778,153.13Z" style="fill:#9accef;"/>
        </g>
        <g id="Layer1">
            <path d="M309.988,84.139C298.726,77.365 294.803,67.506 293.492,59.274C291.208,44.927 298.339,25.581 313.282,20.242C333.544,13.002 347.494,13.903 363.022,26.995C367.996,31.189 367.539,38.965 360.772,41.935" style="fill:#0d3d84;fill-opacity:0.99;"/>
            <path d="M310.066,84.255C310.197,80.196 307.762,72.938 306.944,70.792C302.536,59.221 308.43,52.157 315.425,55.712C321.559,58.828 323.395,64.81 323.482,65.129C323.932,63.558 328.519,51.105 330.306,45.07C345.045,46.76 348.276,45.967 360.705,41.988" style="fill:#60a1e7;"/>
            <clipPath id="_clip1">
                <path d="M310.066,84.255C310.197,80.196 307.762,72.938 306.944,70.792C302.536,59.221 308.43,52.157 315.425,55.712C321.559,58.828 323.395,64.81 323.482,65.129C323.932,63.558 328.519,51.105 330.306,45.07C345.045,46.76 348.276,45.967 360.705,41.988"/>
            </clipPath>
            <g clip-path="url(#_clip1)">
                <path d="M360.663,42.023L310.066,84.255C310.197,80.196 307.762,72.938 306.944,70.792C302.536,59.221 308.43,52.157 315.425,55.712C321.559,58.828 323.395,64.81 323.482,65.129C323.932,63.558 327.275,55.658 327.48,54.954C329.031,49.635 328.519,51.105 330.306,45.07C330.728,44.996 344.782,45.145 349.221,44.52C353.326,43.942 355.273,43.346 360.705,41.988L360.663,42.023C360.663,42.02 360.662,42.018 360.661,42.015L360.663,42.023Z" style="fill:#60a2e8;"/>
                <path d="M360.663,42.023L310.066,84.255C310.197,80.196 307.762,72.938 306.944,70.792C302.536,59.221 308.43,52.157 315.425,55.712C321.559,58.828 323.395,64.81 323.482,65.129C323.932,63.558 327.275,55.658 327.48,54.954C329.031,49.635 328.519,51.105 330.306,45.07C330.728,44.996 344.782,45.145 349.221,44.52C353.326,43.942 355.273,43.346 360.705,41.988L360.663,42.023C360.663,42.02 360.662,42.018 360.661,42.015L360.663,42.023Z" style="fill:#60a2e8;"/>
                <path d="M310.075,84.248L310.066,84.255C310.582,76.159 307.762,72.938 306.944,70.792C302.536,59.221 308.43,52.157 315.425,55.712C321.559,58.828 323.395,64.81 323.482,65.129C323.932,63.558 327.275,55.658 327.48,54.954C329.031,49.635 328.519,51.105 330.306,45.07C330.728,44.996 344.782,45.145 349.221,44.52C353.326,43.942 355.273,43.346 360.705,41.988L347.659,52.878L310.112,83.813C310.086,83.792 310.075,83.947 310.075,84.248Z" style="fill:#60a2e8;"/>
            </g>
            <path d="M310.112,83.813C309.884,83.627 310.772,97.506 311.124,104.292C312.802,106.411 313.345,107.289 314.676,108.544C317.525,111.229 320.401,113.747 325.628,117.349C326.301,117.813 326.416,117.846 332.531,121.251C340.863,125.889 346.59,124.431 345.835,115.599C345.803,115.222 344.94,110.295 343.234,101.344C342.163,95.73 342.161,95.337 342.161,95.337C342.161,95.337 351.654,91.538 354.487,89.14C360.976,83.65 362.288,79.712 363.102,77.395C364.059,74.673 364.184,73.287 364.521,70.957C364.924,68.167 364.612,60.215 364.494,59.298C363.412,50.95 361.361,43.511 360.706,41.984" style="fill:#60a1e7;"/>
            <path d="M310.075,84.248L347.659,52.878L360.782,41.887C361.437,43.413 363.412,50.95 364.494,59.298C364.612,60.215 364.059,74.673 363.102,77.395C362.288,79.712 360.976,83.65 354.487,89.14C351.654,91.538 342.161,95.337 342.161,95.337C342.161,95.337 342.163,95.73 343.234,101.344C344.94,110.295 345.803,115.222 345.835,115.599C346.59,124.431 340.863,125.889 332.531,121.251C326.416,117.846 326.301,117.813 325.628,117.349C320.401,113.747 317.525,111.229 314.676,108.544C313.345,107.289 312.802,106.411 311.124,104.292C310.811,98.264 310.076,86.64 310.075,84.248Z" style="fill:#60a2e8;"/>
        </g>
    </g>
    <g id="Layer9">
        <path d="M474.874,74.271C474.61,73.709 469.111,65.938 469.111,65.938C469.111,65.938 466.745,64.45 468.231,62.601C472.607,57.158 475.668,53.895 487.444,50.994C500.552,47.765 511.406,50.25 523.149,56.239C527.271,58.341 535.1,65.997 537.961,76.861C541.666,90.93 539.084,95.694 547.176,107.827C552.436,115.714 564.022,126.769 567.153,132.396C575.446,147.301 571.592,155.582 562.143,162.963C556.702,167.214 536.111,167.397 522.583,155.137C516.219,149.37 515.015,150.362 511.059,142.753C509.042,138.874 508.492,139.21 506.845,135.185C505.086,130.886 504.308,131.304 502.631,126.929C502.453,126.466 502.832,126.299 495.149,110.933C494.794,110.224 484.275,93.546 481.217,90.035C479.724,88.322 478.212,86.632 477.949,86.337C473.518,81.385 477.019,77.227 474.874,74.271Z" style="fill:#0c3f85;fill-opacity:0.99;"/>
        <path d="M378.036,229.584C374.758,229.571 312.206,227.715 312.206,227.715L320.289,256.247C320.289,256.247 349.653,247.441 363.079,249.039C369.407,249.793 373.379,250.026 379.992,250.575C388.267,251.261 386.878,252.471 388.224,246.818C388.258,246.674 378.153,229.613 378.036,229.584Z" style="fill:#8ccdff;"/>
        <path d="M418.475,220.593C416.38,220.27 405.975,221.832 402.958,222.352C392.921,224.081 376.504,229.482 376.504,229.482C376.504,229.482 376.455,229.43 376.504,229.482C376.913,229.917 379.929,236.997 380.464,238.269C382.17,242.329 383.877,245.399 384.015,251.044C389.443,251.694 390.692,251.389 396.011,251.417C403.541,251.457 405.047,251.398 414.769,249.92C419.624,249.183 419.798,248.893 425.546,247.951C428.357,247.491 432.725,247.059 433.255,244.517C433.552,243.089 434.078,241.009 430.486,232.194C429.752,230.392 427.467,220.946 422.982,220.722C421.198,220.632 420.688,220.378 418.475,220.593Z" style="fill:#dceffd;"/>
        <path d="M466.796,171.519C466.803,171.781 463.018,176.378 454.39,187.594C446.356,198.038 418.405,219.697 417.421,220.558C424.437,225.609 426.186,228.155 428.474,233.16C430.423,237.424 430.933,243.121 431.135,246.603C438.982,244.284 443.334,242.099 454.808,236.855C464.711,232.329 468.805,230.278 469.911,229.383C477.802,236.134 507.922,256.603 507.922,256.603L533.72,254.124C533.72,254.124 531.966,252.501 538.16,225.244C540.39,215.433 543.593,195.002 538.117,187.958C532.641,180.915 467.024,171.291 466.796,171.519Z" style="fill:#bcdcf7;"/>
        <path d="M474.241,416.65C472.703,430.207 483.139,485.811 486.517,510.583C488.116,522.311 492.529,534.767 476.773,545.328C471.145,549.101 467.281,552.693 467.281,552.693C467.281,552.693 470.575,555.329 475.275,554.926C484.118,554.168 491.425,554.083 501.714,547.223C504.665,545.256 510.614,541.338 510.838,534.628C510.893,532.992 518.175,425.387 515.246,414.403C511.394,399.959 480.236,403.318 475.587,413.882C474.649,416.015 475.139,414.495 474.241,416.65Z" style="fill:#60a2e8;"/>
        <path d="M508.776,421.451C510.956,431.9 558.372,526.505 556.984,541.653C555.737,555.252 542.233,567.118 542.233,567.118C542.233,567.118 546.273,569.985 552.538,568.846C568.603,565.925 567.856,563.734 579.409,552.181C579.813,551.777 585.531,544.368 585.531,544.368C585.531,544.368 581.871,541.891 579.021,524.793C571.045,476.936 565.803,456.642 552.502,427.379C552.237,426.796 547.003,414.173 547.003,414.173C547.003,414.173 537.29,412.78 530.447,411.497C528.674,411.165 514.264,411.846 508.776,421.451Z" style="fill:#8ccdff;"/>
        <path d="M471.338,549.131C477.062,554.715 479.913,555.52 492.009,547.187C500.649,541.235 510.858,533.95 510.858,533.95C510.858,533.95 514.303,536.117 515.104,540.354C516.811,549.382 514.959,565.384 514.959,565.384C514.959,565.384 509.582,565.606 503.777,565.669C503.814,565.631 503.352,558.437 502.856,552.343C496.835,559.492 496.446,561.241 489.248,564.618C487.274,565.543 486.622,565.261 480.37,565.956C476.884,566.343 455.15,565.396 451.998,564.937C450.74,564.754 450.056,564.579 448.943,563.337C446.699,560.831 469.046,550.564 471.338,549.131Z" style="fill:#0b3d89;fill-opacity:0.99;"/>
        <path d="M544.291,564.638C543.289,565.534 529.699,575.08 528.062,576.179C524.895,578.305 527.366,580.354 533.335,580.52C561.176,581.293 563.931,582.895 576.888,565.287C577.606,570.461 578.47,576.403 578.47,576.403L592.006,575.145C592.006,575.145 591.344,555.172 588.601,547.062C587.068,542.529 583.109,540.415 583.109,540.415C583.109,540.415 578.9,545.808 573.933,551.014C570.391,554.726 563.309,560.461 560.924,562.035C551.904,567.986 552.422,568.881 547.154,566.247C547.036,566.188 545.396,565.274 544.291,564.638Z" style="fill:#0d448d;"/>
        <path d="M467.456,253.141C468.53,254.2 511.356,253.911 533.495,252.03C535.492,268.958 552.771,274.891 559.127,309.539C560.018,314.393 562.833,320.586 558.395,340.442C553.48,362.435 560.646,385.97 561.831,389.657C564.309,397.364 570.872,419.884 570.872,419.884C570.872,419.884 517.897,424.22 487.123,422.302C483.335,422.066 464.462,420.646 462.491,420.514C460.746,397.373 451.514,315.641 460.507,277.265C462.464,268.912 465.378,257.299 467.456,253.141Z" style="fill:#0c3e85;"/>
        <path d="M536.771,254.7C533.495,256.738 532.906,260.023 524.179,263.913C522.35,264.729 510.084,266.976 500.369,276.692C499.565,277.495 486.849,295.228 500.897,296.707C513.01,297.982 536.673,277.709 555.17,271.625C550.779,263.248 550.41,259.761 542.719,256.536C542.013,256.24 540.196,252.742 536.771,254.7Z" style="fill:#8ccdff;"/>
        <path d="M490.236,145.673C482.854,147.519 478.456,144.368 471.174,153.514C468.672,156.656 464.046,169.335 461.821,178.237C461.41,179.878 455.705,194.53 458.514,200.779C467.957,221.783 467.454,253.146 467.454,253.146C467.454,253.146 467.532,253.201 467.738,253.252C467.882,253.287 468.086,253.32 468.379,253.364C469.081,253.472 470.27,253.581 472.201,253.618C474.846,253.668 474.656,253.741 483.379,253.728C488.937,253.72 504.1,253.657 504.1,253.657L516.654,253.038C516.654,253.038 516.649,252.779 516.686,250.778C516.754,247.078 522.094,206.345 525.469,194.059C533.622,202.751 555.909,235.346 555.909,235.346C555.909,235.346 537.872,252.371 534.118,256.918C535.734,257.789 543.704,261.985 548.431,274.342C550.355,273.28 551.242,274.876 572.926,261.323C594.012,248.145 591.929,242.008 588.438,232.002C584.196,219.844 567.863,185.067 562.912,174.142C561.328,170.647 556.506,158.668 546.109,151.407C536.016,144.358 528.521,141.374 519.502,139.604C510.273,137.793 503.157,142.443 490.236,145.673Z" style="fill:#e3f4fe;fill-opacity:0.99;"/>
        <path d="M469.09,65.917C467.365,68.943 464.67,74.508 462.95,80.546C460.639,88.662 461.502,97.618 462.93,103.991C463.983,108.687 466.239,112.193 468.558,114.637C469.346,115.467 471.083,117.037 473.601,117.892C477.072,119.071 481.912,119.37 487.388,118.283C489.461,129.61 492.748,129.608 489.588,140.669C487.661,147.413 484.423,151.769 482.566,155.973C480.45,160.764 479.849,165.392 480.127,173.73C482.284,171.63 483.825,171.371 487.423,167.257C494.403,159.274 510.542,145.52 518.83,139.541C516.305,138.436 510.68,133.86 506.505,124.863C506.319,124.461 504.273,118.51 503.45,114.285C503.081,112.39 501.618,106.307 501.618,106.307C501.618,106.307 511.45,98.774 511.108,91.252C510.831,85.144 501.191,81.92 496.304,88.255C496.095,88.527 494.355,90.954 493.73,92.142C491.169,90.155 484.346,84.41 481.015,80.65C476.163,75.173 474.899,73.355 469.09,65.917Z" style="fill:#8ccdff;"/>
    </g>
    <g id="Layer8">
        <g id="Layer2">
            <path d="M97.716,107.821C97.693,108.653 97.86,120.158 97.952,129.239C104.776,129.611 133.304,132.401 133.804,132.476C133.952,131.131 134.337,124.171 134.582,121.962C136.558,121.234 147.036,118.613 152.36,105.708C158.389,91.096 154.585,83.801 149.683,74.812C144.405,65.135 137.975,59.901 137.975,59.901C137.975,59.901 109.451,67.151 108.439,68.163C99.906,76.696 94.503,85.896 97.321,105.623C97.469,106.656 97.615,106.813 97.716,107.821Z" style="fill:#60a2e8;"/>
            <path d="M97.425,122.461C96.86,124.41 94.146,134.305 93.971,134.529C99.743,134.245 135.301,138.11 135.301,138.11L134.658,125.275C134.658,125.275 128.681,125.284 122.156,124.169C102.558,120.82 99.915,122.071 97.425,122.461Z" style="fill:#b0d8f5;"/>
            <path d="M109.607,78.726C108.806,85.434 110.156,91.981 111.857,96.179C114.357,102.346 117.636,104.698 115.3,105.526C98.892,111.349 99.87,111.351 97.482,110.049C95.984,109.233 90.652,104.171 86.993,98.632C84.749,95.235 83.39,91.08 82.248,85.228C81.064,79.155 80.868,69.195 86.445,60.35C89.598,55.35 98.133,47.021 108.97,43.391C117.179,40.64 124.187,39.809 136.171,43.99C142.808,46.305 147.287,48.904 147.738,54.456C148.043,58.198 139.062,64.025 129.979,69.47C126.485,71.564 112.773,77.969 109.607,78.726Z" style="fill:#0d3d87;fill-opacity:0.99;"/>
        </g>
        <g id="Layer6">
            <path d="M41.859,544.647C43.686,537.677 79.95,535.467 81.332,537.946C86.145,546.584 96.493,552.611 98.528,553.479C105.273,556.358 107.533,557.105 112.847,560.131C119.716,564.043 118.765,566.581 117.837,568.73C117.092,570.456 115.86,571.675 96.924,574.2C56.473,579.593 44.592,576.979 40.17,576.095C32.793,574.619 40.445,550.041 41.859,544.647Z" style="fill:#0b3b85;"/>
            <path d="M143.287,553.828C144.062,559.701 134.606,588.79 141.244,592.109C145.965,594.47 181.211,592.044 195.058,591.065C218.762,589.388 228.201,584.62 227.379,581.742C225.834,576.334 216.727,574.134 205.648,570.275C203.69,569.594 195.648,566.437 191.817,564.282C184.512,560.173 174.575,550.782 173.684,549.89C173.294,549.501 147.717,549.398 143.287,553.828Z" style="fill:#0b3b85;"/>
            <path d="M142.724,553.265C143.859,552.13 146.275,551.224 149.327,550.584C156.052,549.173 165.946,548.87 170.808,548.929C172.242,548.946 173.252,548.999 173.64,549.059L174.018,549.166L174.246,549.328C175.13,550.211 184.97,559.517 192.207,563.588C196.003,565.723 203.97,568.848 205.909,569.524C212.605,571.855 218.583,573.593 222.632,575.781C225.536,577.35 227.475,579.179 228.144,581.524C228.295,582.051 228.242,582.622 227.931,583.219C227.578,583.896 226.845,584.643 225.663,585.383C221.627,587.908 211.913,590.67 195.114,591.859C185.408,592.545 165.202,593.94 152.33,593.906C146.643,593.89 142.35,593.552 140.888,592.821C139.924,592.339 139.212,591.431 138.755,590.154C138.16,588.495 137.987,586.162 138.109,583.451C138.429,576.378 140.72,566.634 141.881,560.008C142.359,557.288 142.654,555.119 142.498,553.932C142.466,553.687 142.549,553.44 142.724,553.265ZM173.297,550.626C172.957,550.601 171.954,550.535 170.788,550.521C166.005,550.463 156.27,550.754 149.654,552.142C147.205,552.656 145.194,553.286 144.115,554.154C144.185,555.495 143.911,557.652 143.45,560.283C142.298,566.852 140.016,576.511 139.7,583.523C139.588,585.986 139.713,588.109 140.253,589.617C140.553,590.452 140.97,591.082 141.6,591.397C142.114,591.654 143.032,591.83 144.263,591.972C146.275,592.204 149.065,592.305 152.335,592.314C165.171,592.348 185.322,590.955 195.001,590.271C211.388,589.111 220.881,586.497 224.818,584.033C225.56,583.569 226.086,583.124 226.392,582.69C226.577,582.426 226.679,582.189 226.614,581.961C226.047,579.979 224.33,578.508 221.875,577.181C217.883,575.025 211.986,573.326 205.386,571.027C203.41,570.339 195.294,567.151 191.427,564.976C184.385,561.015 174.92,552.197 173.297,550.626Z" style="fill:#0a3d87;"/>
            <path d="M50.01,154.698C48.063,157.244 42.3,164.692 35.741,178.971C27.984,195.861 24.726,205.919 18.75,231.514C16.151,242.645 24.586,251.987 30.3,257.383C36.336,263.082 66.293,282.058 66.293,282.058C66.293,282.058 69.191,288.536 70.226,295.779C71.04,301.477 71.801,319.963 71.801,319.963C71.437,320.693 67.44,401.487 66.146,406.189C65.373,408.998 53.13,447.221 41.911,499.274C32.079,544.894 36.728,550.686 36.728,550.686C36.728,550.686 48.401,553.692 63.124,550.696C78.235,547.621 84.007,543.587 84.007,543.587C84.007,543.587 110.638,453.143 115.59,439.523C126.474,409.591 118.484,406.629 142.874,386.673C144.485,385.355 144.098,384.995 161.046,368.047C167.88,361.212 178.142,354.762 178.142,354.762C178.142,354.762 178.092,353.021 177.898,349.645C177.474,342.246 175.795,328.111 175.539,315.395C176.302,315.319 181.015,314.729 185.451,313.799C184.483,304.787 177.39,254.196 175.645,243.535C171.773,219.887 157.816,160.284 106.302,149.979C80.889,144.896 71.124,148.863 61.057,151.607C59.928,151.915 50.134,154.636 50.01,154.698Z" style="fill:#0c3e85;fill-opacity:0.99;"/>
            <path d="M102.708,333.328C103.691,356.391 118.107,401.681 121.707,414.802C122.727,418.519 125.333,430.192 127.034,445.255C128.928,462.037 135.84,568.924 135.84,568.924C135.84,568.924 148.467,568.843 153.339,567.971C166.494,565.616 183.009,559.574 185.519,559.097C183.564,522.755 182.797,467.622 182.68,427.361C182.611,403.339 180.291,383.552 179.485,373.291C178.411,359.634 177.954,350.645 177.954,350.645C177.954,350.645 161.697,349.495 146.032,345.839C128.439,341.733 115.091,336.947 102.708,333.328Z" style="fill:#215db1;"/>
            <path d="M286.088,228.617C289.313,227.472 294.41,229.882 303.969,228.835C306.995,228.503 323.283,216.958 331.597,228.295C326.003,229.228 315.075,230.833 316.691,236.761C318.365,242.897 329.169,236.545 330.379,236.452C331.36,236.376 332.711,235.976 333.956,236.602C335.532,237.393 337.12,239.491 339.591,242.234C346.626,250.043 350.051,249.094 351.062,249.492C345.833,253.836 347.659,252.072 342.469,256.397C340.07,258.396 337.296,260.115 334.41,261.84C332.13,263.202 325.908,266.468 321.36,264.869C315.737,262.891 316.279,262.633 311.486,258.247C307.31,254.426 305.67,253.746 305.23,253.604C297.323,251.042 296.849,249.943 291.659,248.552C285.603,246.928 278.76,246.258 278.76,246.258C278.76,246.258 284.015,230.691 286.088,228.617Z" style="fill:#5fa3e7;"/>
            <path d="M50.01,154.698C50.542,157.444 65.019,259.036 66.515,283.53C67.459,299.001 67.176,318.492 67.176,318.492C67.176,318.492 103.654,322.51 121.348,322.194C139.992,321.86 173.65,316.393 185.44,313.796C181.31,310.011 157.786,288.243 149.153,252.409C141.765,221.74 140.71,216.885 140.24,201.12C152.116,211.319 180.542,233.92 188.074,241.561C194.397,247.975 200.596,253.057 206.699,253.248C212.559,253.431 287.109,254.325 287.109,254.325L289.388,227.526C289.388,227.526 255.39,222.808 247.425,221.728C235.701,220.137 222.188,217.418 213.709,215.611C205.996,200.646 196.303,188.402 188.047,174.54C182.695,165.554 172.606,149.799 149.186,140.166C125.077,130.251 97.518,130.72 80.359,136.065C64.045,141.146 60.958,144.964 50.01,154.698Z" style="fill:#1d54a3;"/>
        </g>
    </g>
    <g id="Layer11">
    </g>
</svg>
