<svg width="1478" height="247" viewBox="0 0 1478 247" fill="none" xmlns="http://www.w3.org/2000/svg">
<path d="M94.3044 246.73V211.935H99.0196C128.533 211.935 152.459 187.859 152.459 158.16H94.3044V123.365H187.037V161.323C187.037 208.492 149.038 246.73 102.163 246.73H94.3044Z" fill="white"/>
<path d="M0 161.323H34.5783V148.671C34.5783 118.972 58.5038 94.8961 88.0175 94.8961H187.037V60.1009H84.874C37.9994 60.1009 0 98.3386 0 145.507V161.323Z" fill="white"/>
<path d="M0 0V52.1928H34.5783C34.5783 42.5844 42.3189 34.7952 51.8674 34.7952H187.037V0H0Z" fill="white"/>
<path d="M0 246.5L0 211.705H34.5783V246.5H0Z" fill="white"/>
<path d="M343.312 214.787C328.557 214.787 315.626 212.218 304.519 207.081C293.413 201.944 284.131 195.042 276.674 186.373C269.375 177.544 263.901 167.752 260.252 156.997C256.603 146.081 254.778 134.925 254.778 123.527C254.778 112.13 256.603 100.973 260.252 90.0576C264.06 79.1418 269.613 69.3497 276.912 60.6813C284.369 51.8523 293.73 44.8695 304.995 39.7326C316.26 34.4352 329.429 31.7866 344.502 31.7866C356.243 31.7866 366.318 33.3116 374.728 36.3616C383.295 39.251 390.435 43.1037 396.147 47.9195C401.859 52.5747 406.381 57.551 409.713 62.8484C413.203 68.1458 415.821 73.2024 417.567 78.0181C419.471 82.6734 420.661 86.526 421.137 89.576C421.771 92.4655 422.088 93.9103 422.088 93.9103H385.675C385.675 93.9103 385.199 92.4655 384.247 89.576C383.295 86.6866 381.391 83.3155 378.535 79.4629C375.68 75.4497 371.475 71.9984 365.922 69.1089C360.527 66.0589 353.387 64.5339 344.502 64.5339C332.92 64.5339 323.241 67.4234 315.467 73.2024C307.851 78.8208 302.06 86.1247 298.093 95.1142C294.285 103.943 292.381 113.173 292.381 122.805C292.381 132.758 294.365 142.309 298.331 151.459C302.298 160.448 308.089 167.833 315.705 173.612C323.479 179.23 333.158 182.039 344.74 182.039C357.433 182.039 367.429 178.748 374.728 172.167C382.185 165.585 386.627 156.676 388.055 145.439H342.36V116.304H424.23V130.029C424.23 148.65 420.661 164.301 413.521 176.983C406.54 189.504 396.94 198.975 384.723 205.396C372.665 211.656 358.861 214.787 343.312 214.787Z" fill="white"/>
<path d="M449.467 212.379V34.1945H520.865C533.876 34.1945 544.982 36.5221 554.185 41.1774C563.546 45.8326 570.686 52.2537 575.604 60.4405C580.681 68.6274 583.22 78.0984 583.22 88.8537C583.22 100.572 580.285 110.846 574.414 119.675C568.544 128.343 560.214 134.684 549.425 138.697L587.742 212.379H547.045L512.06 143.754H486.118V212.379H449.467ZM520.39 66.2195H486.118V113.414H520.39C528.481 113.414 534.828 111.167 539.429 106.672C544.03 102.177 546.331 96.6392 546.331 90.0576C546.331 83.3155 544.03 77.6971 539.429 73.2024C534.828 68.5471 528.481 66.2195 520.39 66.2195Z" fill="white"/>
<path d="M618.899 212.379V34.1945H740.276V66.4603H655.55V106.431H729.328V137.493H655.55V180.113H741.466V212.379H618.899Z" fill="white"/>
<path d="M771.596 212.379V34.1945H892.974V66.4603H808.248V106.431H882.026V137.493H808.248V180.113H894.164V212.379H771.596Z" fill="white"/>
<path d="M924.294 212.379V34.1945H1047.34V66.4603H960.945V113.173H1036.39V144.235H960.945V212.379H924.294Z" fill="white"/>
<path d="M1077.46 212.379V34.1945H1114.11V212.379H1077.46Z" fill="white"/>
<path d="M1146.48 212.379V34.1945H1180.04L1255.96 147.847V34.1945H1292.37V212.379H1258.34L1182.9 101.856V212.379H1146.48Z" fill="white"/>
<path d="M1324.75 212.379V34.1945H1391.39C1405.67 34.1945 1418.2 36.7629 1428.99 41.8997C1439.94 46.876 1448.98 53.6181 1456.12 62.126C1463.26 70.6339 1468.66 80.1853 1472.3 90.78C1475.95 101.375 1477.78 112.21 1477.78 123.287C1477.78 134.363 1475.95 145.198 1472.3 155.793C1468.66 166.388 1463.26 175.939 1456.12 184.447C1448.98 192.955 1439.94 199.777 1428.99 204.914C1418.2 209.891 1405.67 212.379 1391.39 212.379H1324.75ZM1389.72 66.701H1361.4V179.391H1389.72C1401.3 179.391 1410.82 176.662 1418.28 171.204C1425.9 165.746 1431.53 158.683 1435.18 150.014C1438.99 141.346 1440.89 132.356 1440.89 123.046C1440.89 113.735 1438.99 104.826 1435.18 96.3181C1431.53 87.6497 1425.9 80.5866 1418.28 75.1287C1410.82 69.5102 1401.3 66.701 1389.72 66.701Z" fill="white"/>
</svg>
