<svg width="200" height="250" viewBox="0 0 200 250" fill="none" xmlns="http://www.w3.org/2000/svg">
<path d="M94.3044 246.73V211.935H99.0196C128.533 211.935 152.459 187.859 152.459 158.16H94.3044V123.365H187.037V161.323C187.037 208.492 149.038 246.73 102.163 246.73H94.3044Z" fill="white"/>
<path d="M0 161.323H34.5783V148.671C34.5783 118.972 58.5038 94.8961 88.0175 94.8961H187.037V60.1009H84.874C37.9994 60.1009 0 98.3386 0 145.507V161.323Z" fill="white"/>
<path d="M0 0V52.1928H34.5783C34.5783 42.5844 42.3189 34.7952 51.8674 34.7952H187.037V0H0Z" fill="white"/>
<path d="M0 246.5L0 211.705H34.5783V246.5H0Z" fill="white"/>
</svg>
